<svg xmlns="http://www.w3.org/2000/svg" viewBox="0 0 560 420" role="img" aria-label="Dashboard preview">
  <rect width="560" height="420" rx="24" fill="#EDF2FB"/>
  <rect x="32" y="32" width="496" height="48" rx="12" fill="#ffffff" stroke="#ADE8F4"/>
  <circle cx="56" cy="56" r="8" fill="#21295C"/>
  <rect x="80" y="48" width="120" height="16" rx="8" fill="#21295C" opacity="0.35"/>
  <rect x="32" y="104" width="150" height="284" rx="16" fill="#ffffff" stroke="#ADE8F4"/>
  <rect x="52" y="128" width="110" height="12" rx="6" fill="#ADE8F4"/>
  <rect x="52" y="156" width="90" height="12" rx="6" fill="#EDF2FB"/>
  <rect x="52" y="184" width="100" height="12" rx="6" fill="#EDF2FB"/>
  <rect x="52" y="212" width="80" height="12" rx="6" fill="#EDF2FB"/>
  <rect x="200" y="104" width="328" height="130" rx="16" fill="#ffffff" stroke="#ADE8F4"/>
  <polyline points="230,200 270,160 310,175 350,120 390,140 430,95 490,110" fill="none" stroke="#21295C" stroke-width="4" stroke-linecap="round" stroke-linejoin="round"/>
  <rect x="200" y="252" width="155" height="136" rx="16" fill="#ffffff" stroke="#ADE8F4"/>
  <rect x="220" y="280" width="115" height="12" rx="6" fill="#18435A" opacity="0.55"/>
  <rect x="220" y="304" width="95" height="12" rx="6" fill="#ADE8F4"/>
  <rect x="220" y="328" width="105" height="12" rx="6" fill="#EDF2FB"/>
  <rect x="373" y="252" width="155" height="136" rx="16" fill="#ffffff" stroke="#ADE8F4"/>
  <rect x="393" y="300" width="115" height="56" rx="10" fill="#21295C" opacity="0.15"/>
  <rect x="405" y="312" width="24" height="32" rx="4" fill="#21295C"/>
  <rect x="437" y="324" width="24" height="20" rx="4" fill="#1B3B6F"/>
  <rect x="469" y="304" width="24" height="40" rx="4" fill="#21295C"/>
</svg>
